# xmcd
#
# Track frame offsets: 
#        150
#        10990
#        24503
#        37045
#        48103
#        61498
#        75393
#        90955
#        105288
#        120410
#        130753
#        144690
#        156245
#        166798
#        177023
#        190773
#        206105
#        220273
#        234860
#        247315
#        259775
#        273590
#        286473
#        300573
#
# Disc length: 4161 seconds
#
# Revision: 0
# Processed by: cddbd v1.5.2PL0 Copyright (c) Steve Scherf et al.
# Submitted via: ExactAudioCopy v0.99pb5
#
DISCID=43103f18
DTITLE=Various Artist - A Carnival Of Soul - Feelin Good
DYEAR=1900
DGENRE=Soul
TTITLE0=Phil Terrell - I'm Just A Young Boy
TTITLE1=Barbara Brown - So In Love
TTITLE2=The Topics - Hey Girl ( Where Are You Going?)
TTITLE3=The Manhattans - There Goes A Fool
TTITLE4=Harry Caldwell - Please Come Back
TTITLE5=Lee Williams and The Cymbals - Peeping Through The Window
TTITLE6=The Metrics - I Found You
TTITLE7=The Symphonies - That's What Love Will Do
TTITLE8=The Pretenders - I'm The One Love Forgot
TTITLE9=Barbara Brown - Sometimes I Wonder
TTITLE10=Jimmy Jules - Don't Let Yourself Go
TTITLE11=Harold and Connie - Bugaloo Party
TTITLE12=The Lovettes - Little Miss Soul
TTITLE13=The Manhattans - Love Is Breaking Out All Over
TTITLE14=The Pretenders - Broken Heart
TTITLE15=Rene Bailey - Warm And Tender Love
TTITLE16=Phil Terrell - Don't You Run Away
TTITLE17=Norma Jenkins - Need Someone To Love
TTITLE18=The Topics - I Don't Have To Cry
TTITLE19=The Lovettes - I'm Afraid (To Say I Love You)
TTITLE20=Harry Caldwell - A New World Is Just Beginning
TTITLE21=Lee Williams and The Cymbals - Lost Love
TTITLE22=Curby Goggins - Leave Me If You Want To
TTITLE23=Carnival Kings - Feelin Good
EXTD=
EXTT0=
EXTT1=
EXTT2=
EXTT3=
EXTT4=
EXTT5=
EXTT6=
EXTT7=
EXTT8=
EXTT9=
EXTT10=
EXTT11=
EXTT12=
EXTT13=
EXTT14=
EXTT15=
EXTT16=
EXTT17=
EXTT18=
EXTT19=
EXTT20=
EXTT21=
EXTT22=
EXTT23=
PLAYORDER=
